<?xml version="1.0" encoding="utf-8"?>
<!-- Generator: Adobe Illustrator 16.0.0, SVG Export Plug-In . SVG Version: 6.00 Build 0)  -->
<!DOCTYPE svg PUBLIC "-//W3C//DTD SVG 1.1//EN" "http://www.w3.org/Graphics/SVG/1.1/DTD/svg11.dtd">
<svg version="1.1" id="Layer_1" xmlns="http://www.w3.org/2000/svg" xmlns:xlink="http://www.w3.org/1999/xlink" x="0px" y="0px"
	 width="200px" height="200px" viewBox="0 0 200 200" enable-background="new 0 0 200 200" xml:space="preserve">
<g id="Layer_1_1_">
	<g>
		<rect x="-4" y="-2" fill="#00A99D" width="205" height="206"/>
	</g>
</g>
<g>
	<g>
		<g>
			<g>
				<g>
					<g>
						<g>
							<path fill="#EDEDED" d="M150.52,18.353L181.723-7.01c10.532-8.561,26.551-6.365,35.697,4.889l6.551,8.059
								c9.137,11.242,8.014,27.371-2.52,35.931l-31.204,25.363c-10.526,8.557-26.55,6.365-35.688-4.877l-6.55-8.06
								C138.861,43.042,139.991,26.91,150.52,18.353z M209.958,27.729c3.243-2.636,3.589-7.599,0.789-11.043l-6.552-8.059
								c-2.809-3.456-7.745-4.143-10.988-1.507l-31.204,25.363c-3.243,2.636-3.579,7.61-0.771,11.065l6.551,8.06
								c2.799,3.444,7.728,4.12,10.971,1.484L209.958,27.729z"/>
						</g>
					</g>
					<path fill="#EDEDED" d="M164.65,47.451c3.17,3.899,8.709,4.663,12.361,1.694c3.647-2.964,4.03-8.543,0.861-12.442
						s-8.708-4.664-12.355-1.699C161.866,37.974,161.482,43.552,164.65,47.451z"/>
					
						<rect x="139.113" y="44.381" transform="matrix(0.776 -0.6307 0.6307 0.776 1.4766 111.1413)" fill="#EDEDED" width="36.21" height="18.222"/>
					
						<rect x="197.347" y="-2.955" transform="matrix(0.776 -0.6307 0.6307 0.776 44.3751 137.2679)" fill="#EDEDED" width="36.21" height="18.223"/>
					<path fill="#EDEDED" d="M194.792,22.953c3.169,3.899,8.714,4.659,12.354,1.699c3.653-2.969,4.037-8.547,0.867-12.446
						c-3.168-3.899-8.707-4.663-12.359-1.694C192.012,13.471,191.623,19.054,194.792,22.953z"/>
				</g>
			</g>
			<g>
				<g>
					<g>
						<g>
							<path fill="#EDEDED" d="M64.186,88.525L95.39,63.162c10.533-8.561,26.549-6.365,35.697,4.889l6.552,8.059
								c9.137,11.242,8.014,27.371-2.52,35.931l-31.204,25.363c-10.527,8.556-26.55,6.363-35.688-4.879l-6.551-8.059
								C52.529,113.214,53.658,97.082,64.186,88.525z M123.625,97.9c3.243-2.636,3.589-7.599,0.789-11.043l-6.551-8.059
								c-2.809-3.456-7.746-4.143-10.989-1.507L75.67,102.654c-3.243,2.636-3.58,7.609-0.771,11.064l6.55,8.061
								c2.8,3.443,7.728,4.119,10.971,1.482L123.625,97.9z"/>
						</g>
					</g>
					<path fill="#EDEDED" d="M78.318,117.623c3.169,3.898,8.708,4.663,12.361,1.693c3.647-2.965,4.031-8.543,0.862-12.441
						s-8.708-4.663-12.355-1.698C75.533,108.146,75.149,113.725,78.318,117.623z"/>
					
						<rect x="52.782" y="114.553" transform="matrix(0.776 -0.6307 0.6307 0.776 -62.12 72.4093)" fill="#EDEDED" width="36.209" height="18.223"/>
					
						<rect x="111.015" y="67.218" transform="matrix(0.776 -0.6307 0.6307 0.776 -19.221 98.5317)" fill="#EDEDED" width="36.21" height="18.221"/>
					<path fill="#EDEDED" d="M108.459,93.125c3.169,3.899,8.714,4.659,12.355,1.699c3.651-2.969,4.035-8.547,0.867-12.446
						c-3.17-3.899-8.709-4.663-12.361-1.694C105.68,83.643,105.29,89.226,108.459,93.125z"/>
				</g>
			</g>
			<g>
				<g>
					<g>
						<g>
							<path fill="#EDEDED" d="M-22.148,158.697l31.204-25.363c10.532-8.561,26.55-6.365,35.697,4.889l6.55,8.061
								c9.138,11.242,8.014,27.369-2.519,35.931L17.58,207.577c-10.527,8.556-26.55,6.364-35.688-4.878l-6.55-8.059
								C-33.804,183.386-32.675,167.253-22.148,158.697z M37.291,168.072c3.243-2.637,3.589-7.6,0.79-11.043l-6.55-8.061
								c-2.809-3.455-7.747-4.143-10.99-1.506l-31.204,25.362c-3.243,2.636-3.58,7.61-0.771,11.065l6.551,8.06
								c2.799,3.444,7.728,4.12,10.971,1.483L37.291,168.072z"/>
						</g>
					</g>
					<path fill="#EDEDED" d="M-8.015,187.795c3.169,3.898,8.708,4.663,12.361,1.694c3.647-2.966,4.031-8.544,0.862-12.442
						s-8.708-4.663-12.355-1.697C-10.8,178.316-11.184,183.896-8.015,187.795z"/>
					
						<rect x="-33.549" y="184.728" transform="matrix(0.776 -0.6307 0.6307 0.776 -125.7178 33.6769)" fill="#EDEDED" width="36.209" height="18.223"/>
					
						<rect x="24.683" y="137.393" transform="matrix(0.776 -0.6307 0.6307 0.776 -82.8194 59.8028)" fill="#EDEDED" width="36.209" height="18.223"/>
					<path fill="#EDEDED" d="M22.125,163.297c3.169,3.898,8.714,4.658,12.355,1.698c3.653-2.97,4.037-8.547,0.867-12.446
						c-3.169-3.898-8.708-4.663-12.361-1.693C19.346,153.814,18.957,159.396,22.125,163.297z"/>
				</g>
			</g>
		</g>
	</g>
</g>
<g>
	<rect x="-19" y="-35.5" fill="#EDEDED" width="237" height="70"/>
</g>
<g>
	<g>
		<rect x="-19" y="165.5" fill="#EDEDED" width="237" height="70"/>
	</g>
</g>
<g>
	<g>
		<rect x="-110.613" y="108.525" fill="none" width="86.761" height="45.947"/>
		<g>
			<g>
				<path fill="#231F20" d="M-32.005,135.282v-7.575c0-10.568-8.618-19.182-19.197-19.182h-31.362
					c-10.584,0-19.196,8.613-19.196,19.182v7.575c0,10.579,8.612,19.19,19.196,19.19h31.362
					C-40.623,154.475-32.005,145.861-32.005,135.282z M-51.202,121.818c3.259,0,5.909,2.649,5.909,5.889v7.575
					c0,3.249-2.65,5.909-5.909,5.909h-31.362c-3.259,0-5.909-2.66-5.909-5.909v-7.575c0-3.238,2.65-5.889,5.909-5.889H-51.202z"/>
			</g>
		</g>
		<path fill="#231F20" d="M-45.442,131.5c0-3.665-2.976-6.646-6.646-6.646c-3.665,0-6.641,2.981-6.641,6.646
			s2.976,6.646,6.641,6.646C-48.418,138.146-45.442,135.165-45.442,131.5z"/>
		<rect x="-52.088" y="124.854" fill="#231F20" width="28.236" height="13.293"/>
		<rect x="-110.613" y="124.854" fill="#231F20" width="28.236" height="13.293"/>
		<path fill="#231F20" d="M-75.735,131.5c0-3.665-2.976-6.646-6.641-6.646c-3.67,0-6.646,2.981-6.646,6.646s2.976,6.646,6.646,6.646
			C-78.711,138.146-75.735,135.165-75.735,131.5z"/>
	</g>
</g>
<g>
	<g>
		<rect x="-197.374" y="108.525" fill="none" width="86.761" height="45.947"/>
		<g>
			<g>
				<path fill="#231F20" d="M-118.766,135.282v-7.575c0-10.568-8.618-19.182-19.197-19.182h-31.362
					c-10.584,0-19.196,8.613-19.196,19.182v7.575c0,10.579,8.612,19.19,19.196,19.19h31.362
					C-127.384,154.475-118.766,145.861-118.766,135.282z M-137.962,121.818c3.259,0,5.909,2.649,5.909,5.889v7.575
					c0,3.249-2.65,5.909-5.909,5.909h-31.362c-3.259,0-5.909-2.66-5.909-5.909v-7.575c0-3.238,2.65-5.889,5.909-5.889H-137.962z"/>
			</g>
		</g>
		<path fill="#231F20" d="M-132.203,131.5c0-3.665-2.976-6.646-6.646-6.646c-3.665,0-6.641,2.981-6.641,6.646
			s2.976,6.646,6.641,6.646C-135.179,138.146-132.203,135.165-132.203,131.5z"/>
		<rect x="-138.849" y="124.854" fill="#231F20" width="28.236" height="13.293"/>
		<rect x="-197.374" y="124.854" fill="#231F20" width="28.236" height="13.293"/>
		<path fill="#231F20" d="M-162.496,131.5c0-3.665-2.976-6.646-6.641-6.646c-3.67,0-6.646,2.981-6.646,6.646
			s2.976,6.646,6.646,6.646C-165.472,138.146-162.496,135.165-162.496,131.5z"/>
	</g>
</g>
<g>
	<g>
		<rect x="-284.134" y="108.525" fill="none" width="86.761" height="45.947"/>
		<g>
			<g>
				<path d="M-205.526,135.282v-7.575c0-10.568-8.618-19.182-19.197-19.182h-31.362c-10.584,0-19.196,8.613-19.196,19.182v7.575
					c0,10.579,8.612,19.19,19.196,19.19h31.362C-214.145,154.475-205.526,145.861-205.526,135.282z M-224.723,121.818
					c3.259,0,5.909,2.649,5.909,5.889v7.575c0,3.249-2.65,5.909-5.909,5.909h-31.362c-3.259,0-5.909-2.66-5.909-5.909v-7.575
					c0-3.238,2.65-5.889,5.909-5.889H-224.723z"/>
			</g>
		</g>
		<path d="M-218.963,131.5c0-3.665-2.976-6.646-6.646-6.646c-3.665,0-6.641,2.981-6.641,6.646s2.976,6.646,6.641,6.646
			C-221.939,138.146-218.963,135.165-218.963,131.5z"/>
		<rect x="-225.61" y="124.854" width="28.236" height="13.293"/>
		<rect x="-284.134" y="124.854" width="28.236" height="13.293"/>
		<path d="M-249.257,131.5c0-3.665-2.976-6.646-6.641-6.646c-3.67,0-6.646,2.981-6.646,6.646s2.976,6.646,6.646,6.646
			C-252.233,138.146-249.257,135.165-249.257,131.5z"/>
	</g>
</g>
<g>
	<g>
		<rect x="-259.862" y="201.9" fill="none" width="7.929" height="4.199"/>
		<g>
			<g>
				<path d="M-252.679,204.346v-0.691c0-0.967-0.788-1.754-1.754-1.754h-2.866c-0.967,0-1.754,0.787-1.754,1.754v0.691
					c0,0.967,0.787,1.754,1.754,1.754h2.866C-253.466,206.1-252.679,205.313-252.679,204.346z M-254.433,203.115
					c0.298,0,0.54,0.242,0.54,0.537v0.692c0,0.298-0.242,0.54-0.54,0.54h-2.866c-0.298,0-0.54-0.242-0.54-0.54v-0.692
					c0-0.295,0.242-0.537,0.54-0.537H-254.433z"/>
			</g>
		</g>
		<circle cx="-254.514" cy="204" r="0.607"/>
		<rect x="-254.514" y="203.393" width="2.581" height="1.215"/>
		<rect x="-259.862" y="203.393" width="2.581" height="1.215"/>
		<circle cx="-257.282" cy="204" r="0.607"/>
	</g>
</g>
<g>
	<g>
		<rect x="-83.465" y="181.9" fill="none" width="7.929" height="4.199"/>
		<g>
			<g>
				<path fill="#231F20" d="M-76.281,184.346v-0.691c0-0.967-0.788-1.754-1.754-1.754h-2.866c-0.967,0-1.754,0.787-1.754,1.754
					v0.691c0,0.967,0.787,1.754,1.754,1.754h2.866C-77.068,186.1-76.281,185.313-76.281,184.346z M-78.035,183.115
					c0.298,0,0.54,0.242,0.54,0.537v0.692c0,0.298-0.242,0.54-0.54,0.54h-2.866c-0.298,0-0.54-0.242-0.54-0.54v-0.692
					c0-0.295,0.242-0.537,0.54-0.537H-78.035z"/>
			</g>
		</g>
		<circle fill="#231F20" cx="-78.116" cy="184" r="0.607"/>
		<rect x="-78.116" y="183.393" fill="#231F20" width="2.581" height="1.215"/>
		<rect x="-83.465" y="183.393" fill="#231F20" width="2.581" height="1.215"/>
		<circle fill="#231F20" cx="-80.885" cy="184" r="0.607"/>
	</g>
</g>
<g id="Layer_2" display="none">
	<g display="inline">
		<g>
			<g>
				<g>
					<g>
						<g>
							<path fill="#2F203E" d="M52.576,173.303v-7.615c0-10.625-7.847-19.282-17.479-19.282H6.541
								c-9.637,0-17.479,8.657-17.479,19.282v7.615c0,10.635,7.842,19.293,17.479,19.293h28.557
								C44.729,192.596,52.576,183.938,52.576,173.303z M35.097,159.768c2.967,0,5.38,2.664,5.38,5.92v7.615
								c0,3.266-2.413,5.94-5.38,5.94H6.541c-2.968,0-5.381-2.675-5.381-5.94v-7.615c0-3.256,2.413-5.92,5.381-5.92H35.097z"/>
						</g>
					</g>
					<path fill="#2F203E" d="M40.341,169.5c0-3.686-2.71-6.682-6.052-6.682c-3.337,0-6.047,2.996-6.047,6.682
						s2.71,6.682,6.047,6.682C37.631,176.182,40.341,173.186,40.341,169.5z"/>
					<rect x="34.29" y="162.818" fill="#2F203E" width="25.71" height="13.363"/>
					<rect x="-19" y="162.818" fill="#2F203E" width="25.71" height="13.363"/>
					<path fill="#2F203E" d="M12.758,169.5c0-3.686-2.71-6.682-6.047-6.682c-3.342,0-6.052,2.996-6.052,6.682
						s2.71,6.682,6.052,6.682C10.048,176.182,12.758,173.186,12.758,169.5z"/>
				</g>
				<g>
					<g>
						<g>
							<path fill="#2F203E" d="M131.576,173.303v-7.615c0-10.625-7.848-19.282-17.479-19.282H85.541
								c-9.637,0-17.479,8.657-17.479,19.282v7.615c0,10.635,7.842,19.293,17.479,19.293h28.557
								C123.729,192.596,131.576,183.938,131.576,173.303z M114.098,159.768c2.967,0,5.381,2.664,5.381,5.92v7.615
								c0,3.266-2.414,5.94-5.381,5.94H85.541c-2.968,0-5.381-2.675-5.381-5.94v-7.615c0-3.256,2.413-5.92,5.381-5.92H114.098z"/>
						</g>
					</g>
					<path fill="#2F203E" d="M119.341,169.5c0-3.686-2.709-6.682-6.052-6.682c-3.337,0-6.047,2.996-6.047,6.682
						s2.71,6.682,6.047,6.682C116.632,176.182,119.341,173.186,119.341,169.5z"/>
					<rect x="113.289" y="162.818" fill="#2F203E" width="25.711" height="13.363"/>
					<rect x="60" y="162.818" fill="#2F203E" width="25.71" height="13.363"/>
					<path fill="#2F203E" d="M91.758,169.5c0-3.686-2.71-6.682-6.047-6.682c-3.342,0-6.052,2.996-6.052,6.682
						s2.71,6.682,6.052,6.682C89.048,176.182,91.758,173.186,91.758,169.5z"/>
				</g>
				<g>
					<g>
						<g>
							<path fill="#2F203E" d="M210.576,173.303v-7.615c0-10.625-7.848-19.282-17.479-19.282H164.54
								c-9.638,0-17.479,8.657-17.479,19.282v7.615c0,10.635,7.844,19.293,17.479,19.293h28.558
								C202.729,192.596,210.576,183.938,210.576,173.303z M193.098,159.768c2.967,0,5.381,2.664,5.381,5.92v7.615
								c0,3.266-2.414,5.94-5.381,5.94H164.54c-2.967,0-5.38-2.675-5.38-5.94v-7.615c0-3.256,2.413-5.92,5.38-5.92H193.098z"/>
						</g>
					</g>
					<path fill="#2F203E" d="M198.341,169.5c0-3.686-2.709-6.682-6.052-6.682c-3.337,0-6.047,2.996-6.047,6.682
						s2.71,6.682,6.047,6.682C195.632,176.182,198.341,173.186,198.341,169.5z"/>
					<rect x="192.289" y="162.818" fill="#2F203E" width="25.711" height="13.363"/>
					<rect x="139" y="162.818" fill="#2F203E" width="25.711" height="13.363"/>
					<path fill="#2F203E" d="M170.758,169.5c0-3.686-2.71-6.682-6.047-6.682c-3.343,0-6.052,2.996-6.052,6.682
						s2.709,6.682,6.052,6.682C168.048,176.182,170.758,173.186,170.758,169.5z"/>
				</g>
			</g>
		</g>
	</g>
	<g display="inline">
		<g>
			<g>
				<g>
					<g>
						<g>
							<path fill="#2F203E" d="M145.551,67.647l4.168,6.374c5.815,8.892,18.27,11.092,27.738,4.899l28.075-18.361
								c9.475-6.196,12.444-18.485,6.63-27.376l-4.169-6.374c-5.82-8.9-18.271-11.104-27.744-4.908l-28.074,18.361
								C142.705,46.455,139.729,58.747,145.551,67.647z M170.145,67.736c-2.918,1.908-6.748,1.23-8.53-1.494l-4.169-6.374
								c-1.787-2.733-0.879-6.523,2.039-8.431l28.074-18.361c2.918-1.908,6.754-1.221,8.541,1.512l4.168,6.374
								c1.781,2.724,0.867,6.505-2.05,8.413L170.145,67.736z"/>
						</g>
					</g>
					<path fill="#2F203E" d="M159.66,62.963c2.017,3.083,6.32,3.85,9.607,1.701c3.279-2.146,4.303-6.396,2.287-9.48
						c-2.018-3.084-6.322-3.85-9.603-1.704C158.667,55.628,157.645,59.879,159.66,62.963z"/>
					
						<rect x="137.875" y="60.651" transform="matrix(0.8369 -0.5473 0.5473 0.8369 -11.9058 94.706)" fill="#2F203E" width="30.203" height="13.363"/>
					
						<rect x="190.26" y="26.402" transform="matrix(0.8369 -0.5474 0.5474 0.8369 15.39 117.8115)" fill="#2F203E" width="30.202" height="13.364"/>
					<path fill="#2F203E" d="M186.777,45.228c2.018,3.083,6.322,3.85,9.604,1.704c3.285-2.149,4.309-6.399,2.292-9.483
						s-6.321-3.85-9.606-1.701C185.785,37.893,184.762,42.144,186.777,45.228z"/>
				</g>
				<g>
					<g>
						<g>
							<path fill="#2F203E" d="M67.884,118.441l4.168,6.373c5.815,8.893,18.269,11.094,27.738,4.899l28.075-18.36
								c9.475-6.196,12.445-18.485,6.631-27.376l-4.169-6.374c-5.821-8.9-18.271-11.104-27.744-4.908L74.508,91.057
								C65.038,97.25,62.063,109.542,67.884,118.441z M92.477,118.531c-2.917,1.906-6.748,1.229-8.529-1.494l-4.169-6.374
								c-1.788-2.733-0.879-6.522,2.038-8.433l28.076-18.36c2.916-1.908,6.752-1.221,8.541,1.512l4.168,6.375
								c1.781,2.724,0.867,6.505-2.051,8.413L92.477,118.531z"/>
						</g>
					</g>
					<path fill="#2F203E" d="M81.994,113.758c2.017,3.083,6.321,3.85,9.607,1.7c3.281-2.146,4.305-6.396,2.288-9.479
						s-6.321-3.85-9.602-1.703C81,106.424,79.977,110.674,81.994,113.758z"/>
					
						<rect x="60.209" y="111.449" transform="matrix(0.8369 -0.5473 0.5473 0.8369 -52.372 60.4798)" fill="#2F203E" width="30.202" height="13.363"/>
					
						<rect x="112.589" y="77.192" transform="matrix(0.8369 -0.5474 0.5474 0.8369 -25.0829 83.5801)" fill="#2F203E" width="30.202" height="13.365"/>
					<path fill="#2F203E" d="M109.111,96.022c2.018,3.084,6.32,3.85,9.603,1.704c3.286-2.149,4.31-6.399,2.292-9.483
						c-2.017-3.083-6.32-3.85-9.605-1.701C108.118,88.688,107.096,92.938,109.111,96.022z"/>
				</g>
				<g>
					<g>
						<g>
							<path fill="#2F203E" d="M-9.783,169.236l4.169,6.373c5.815,8.893,18.269,11.094,27.738,4.899l28.075-18.36
								c9.475-6.196,12.445-18.485,6.63-27.377l-4.169-6.373c-5.821-8.9-18.27-11.104-27.744-4.908l-28.075,18.361
								C-12.628,148.045-15.604,160.336-9.783,169.236z M14.81,169.325c-2.917,1.907-6.748,1.229-8.529-1.494l-4.168-6.374
								c-1.788-2.732-0.879-6.521,2.038-8.432l28.075-18.36c2.917-1.908,6.753-1.222,8.541,1.513l4.169,6.374
								c1.781,2.724,0.867,6.505-2.05,8.413L14.81,169.325z"/>
						</g>
					</g>
					<path fill="#2F203E" d="M4.327,164.553c2.017,3.083,6.321,3.85,9.607,1.7c3.281-2.146,4.304-6.396,2.288-9.479
						c-2.017-3.084-6.321-3.85-9.602-1.703C3.334,157.218,2.31,161.469,4.327,164.553z"/>
					
						<rect x="-17.455" y="162.247" transform="matrix(0.8369 -0.5473 0.5473 0.8369 -92.8419 26.26)" fill="#2F203E" width="30.202" height="13.363"/>
					
						<rect x="34.921" y="127.983" transform="matrix(0.8369 -0.5474 0.5474 0.8369 -65.556 49.3503)" fill="#2F203E" width="30.203" height="13.363"/>
					<path fill="#2F203E" d="M31.445,146.816c2.017,3.084,6.321,3.851,9.603,1.703c3.286-2.147,4.309-6.398,2.292-9.481
						c-2.017-3.084-6.321-3.851-9.607-1.701C30.452,139.482,29.428,143.732,31.445,146.816z"/>
				</g>
			</g>
		</g>
	</g>
	<g display="inline">
		<g>
			<g>
				<g>
					<g>
						<g>
							<path fill="#2F203E" d="M52.576,34.303v-7.616c0-10.624-7.847-19.282-17.479-19.282H6.541
								c-9.637,0-17.479,8.658-17.479,19.282v7.616c0,10.635,7.842,19.293,17.479,19.293h28.557
								C44.729,53.596,52.576,44.938,52.576,34.303z M35.097,20.768c2.967,0,5.38,2.664,5.38,5.919v7.616
								c0,3.266-2.413,5.94-5.38,5.94H6.541c-2.968,0-5.381-2.675-5.381-5.94v-7.616c0-3.255,2.413-5.919,5.381-5.919H35.097z"/>
						</g>
					</g>
					<path fill="#2F203E" d="M40.341,30.5c0-3.685-2.71-6.682-6.052-6.682c-3.337,0-6.047,2.997-6.047,6.682s2.71,6.682,6.047,6.682
						C37.631,37.182,40.341,34.185,40.341,30.5z"/>
					<rect x="34.29" y="23.818" fill="#2F203E" width="25.71" height="13.363"/>
					<rect x="-19" y="23.818" fill="#2F203E" width="25.71" height="13.363"/>
					<path fill="#2F203E" d="M12.758,30.5c0-3.685-2.71-6.682-6.047-6.682c-3.342,0-6.052,2.997-6.052,6.682s2.71,6.682,6.052,6.682
						C10.048,37.182,12.758,34.185,12.758,30.5z"/>
				</g>
				<g>
					<g>
						<g>
							<path fill="#2F203E" d="M131.576,34.303v-7.616c0-10.624-7.848-19.282-17.479-19.282H85.541
								c-9.637,0-17.479,8.658-17.479,19.282v7.616c0,10.635,7.842,19.293,17.479,19.293h28.557
								C123.729,53.596,131.576,44.938,131.576,34.303z M114.098,20.768c2.967,0,5.381,2.664,5.381,5.919v7.616
								c0,3.266-2.414,5.94-5.381,5.94H85.541c-2.968,0-5.381-2.675-5.381-5.94v-7.616c0-3.255,2.413-5.919,5.381-5.919H114.098z"/>
						</g>
					</g>
					<path fill="#2F203E" d="M119.341,30.5c0-3.685-2.709-6.682-6.052-6.682c-3.337,0-6.047,2.997-6.047,6.682
						s2.71,6.682,6.047,6.682C116.632,37.182,119.341,34.185,119.341,30.5z"/>
					<rect x="113.289" y="23.818" fill="#2F203E" width="25.711" height="13.363"/>
					<rect x="60" y="23.818" fill="#2F203E" width="25.71" height="13.363"/>
					<path fill="#2F203E" d="M91.758,30.5c0-3.685-2.71-6.682-6.047-6.682c-3.342,0-6.052,2.997-6.052,6.682s2.71,6.682,6.052,6.682
						C89.048,37.182,91.758,34.185,91.758,30.5z"/>
				</g>
				<g>
					<g>
						<g>
							<path fill="#2F203E" d="M210.576,34.303v-7.616c0-10.624-7.848-19.282-17.479-19.282H164.54
								c-9.638,0-17.479,8.658-17.479,19.282v7.616c0,10.635,7.844,19.293,17.479,19.293h28.558
								C202.729,53.596,210.576,44.938,210.576,34.303z M193.098,20.768c2.967,0,5.381,2.664,5.381,5.919v7.616
								c0,3.266-2.414,5.94-5.381,5.94H164.54c-2.967,0-5.38-2.675-5.38-5.94v-7.616c0-3.255,2.413-5.919,5.38-5.919H193.098z"/>
						</g>
					</g>
					<path fill="#2F203E" d="M198.341,30.5c0-3.685-2.709-6.682-6.052-6.682c-3.337,0-6.047,2.997-6.047,6.682
						s2.71,6.682,6.047,6.682C195.632,37.182,198.341,34.185,198.341,30.5z"/>
					<rect x="192.289" y="23.818" fill="#2F203E" width="25.711" height="13.363"/>
					<rect x="139" y="23.818" fill="#2F203E" width="25.711" height="13.363"/>
					<path fill="#2F203E" d="M170.758,30.5c0-3.685-2.71-6.682-6.047-6.682c-3.343,0-6.052,2.997-6.052,6.682
						s2.709,6.682,6.052,6.682C168.048,37.182,170.758,34.185,170.758,30.5z"/>
				</g>
			</g>
		</g>
	</g>
</g>
<rect x="274.499" y="33.197" fill="#110022" width="44.667" height="45.676"/>
</svg>
