<?xml version="1.0" encoding="utf-8"?>
<!-- Generator: Adobe Illustrator 16.0.0, SVG Export Plug-In . SVG Version: 6.00 Build 0)  -->
<!DOCTYPE svg PUBLIC "-//W3C//DTD SVG 1.1//EN" "http://www.w3.org/Graphics/SVG/1.1/DTD/svg11.dtd">
<svg version="1.1" id="Layer_1" xmlns="http://www.w3.org/2000/svg" xmlns:xlink="http://www.w3.org/1999/xlink" x="0px" y="0px"
	 width="1000px" height="1000px" viewBox="0 0 1000 1000" enable-background="new 0 0 1000 1000" xml:space="preserve">
<g id="Layer_1_1_" display="none">
	
		<image display="inline" overflow="visible" enable-background="new    " width="4000" height="3000" xlink:href="43504E81.jpeg"  transform="matrix(-0.6214 0 0 -0.6214 1791.8652 1432.0791)">
	</image>
</g>
<g id="Layer_2" display="none">
	
		<rect x="-42.5" y="-168.5" display="inline" opacity="0.5" fill="#FFFFFF" stroke="#000000" stroke-miterlimit="10" enable-background="new    " width="1200" height="1314"/>
</g>
<g id="fundo_pto" display="none">
	<rect x="-33" y="-31" display="inline" width="1082" height="1051"/>
</g>
<g id="fundo_bco" display="none">
	<g display="inline">
		<rect x="-23" y="-28" fill="#FFFFFF" width="1050" height="1067"/>
		<path d="M1028,1039H-23V-29h1051V1039z M-22,1038h1049V-28H-22V1038z"/>
	</g>
</g>
<g id="Layer_3" opacity="0.8">
	<g>
		<path d="M708.856,711.647c61.299,48.125,132.617,108.681,196.304,174.408c78.104,80.604,148.693,165.111,198.77,237.952
			c54.521,79.31,83.34,142.032,83.34,181.39c0,37.854-27.305,77.028-81.159,116.44c-47.191,34.539-115.494,69.119-197.521,100.002
			c-159.846,60.183-336.316,92.657-415.556,92.657c-78.532,0-253.118-32.465-409.021-92.63
			c-79.889-30.831-146.405-65.396-192.359-99.956c-52.37-39.388-78.924-78.588-78.924-116.515
			c0-77.047,110.401-245.601,274.722-419.426c57.752-61.093,123.493-117.662,180.17-163.911l-17.437-9.688
			C194.864,758.236,130.133,813.613,73.79,873.216C-2.953,954.4-72.418,1039.771-121.807,1113.597
			c-38.415,57.426-84.207,137.314-84.207,191.803c0,44.073,29.055,88.272,86.355,131.369
			c47.997,36.096,114.238,70.57,196.887,102.467c71.117,27.444,156.956,51.181,234.995,68.644
			c72.771,16.282,136.982,25.249,180.812,25.249c80.905,0,260.267-32.896,422.196-93.865
			c84.793-31.924,152.754-66.384,201.995-102.421c58.914-43.118,88.787-87.342,88.787-131.441
			c0-43.739-29.139-108.304-86.606-191.899c-50.646-73.672-121.939-159.035-200.744-240.365
			c-61.945-63.93-131.767-123.051-191.632-170.81L708.856,711.647z"/>
		<g>
			<path d="M470.104,548.501c-0.23,0-0.466-0.019-0.701-0.057c-2.406-0.386-4.045-2.646-3.66-5.054
				c9.206-57.594,6.623-136.998-0.021-190.143c-0.303-2.417,1.413-4.623,3.831-4.925c2.408-0.303,4.623,1.412,4.925,3.831
				c6.724,53.765,9.323,134.179-0.021,192.628C474.107,546.954,472.233,548.501,470.104,548.501z"/>
		</g>
		<path d="M733.384,588.282c-15.295,0-36.22,16.429-62.423,38.148c27.091,17.125,48.886,37.295,61.773,58.872
			c0.4,0.673,0.519,1.479,0.323,2.237c-0.193,0.76-0.684,1.41-1.358,1.807c-13.264,7.789-33.742,11.737-60.87,11.737
			c-33.174,0-67.283-5.998-78.252-8.108c0.729,2.879,2.896,8.724,9.205,19.814c0.414,0.727,0.498,1.595,0.232,2.387
			c-0.265,0.793-0.854,1.727-1.622,2.06C590.462,721.529,580.35,724,570.34,724c-0.003,0-0.008,0-0.011,0
			c-5.313,0-10.412-0.719-15.288-1.788c-7.533,27.169-32.674,47.288-62.462,47.288c-31.257,0-57.414-22.104-63.461-51.306
			c-12.274,4.563-26.015,7.806-40.62,7.806c-0.003,0-0.007,0-0.009,0c-6.077,0-12.173-0.676-18.118-1.752
			c-1.073-0.195-1.95-1.032-2.28-2.072c-0.329-1.039-0.057-2.208,0.708-2.983c11.354-11.53,16.204-19.096,18.255-23.643
			c-9.7,6.059-31.345,15.895-69.552,15.895c-18.662,0-39.247-2.396-61.183-7.113c-0.836-0.18-1.552-0.716-1.963-1.466
			c-0.41-0.749-0.474-1.643-0.175-2.442c10.753-28.796,31.52-54.25,59.199-74.688c-25.82-21.388-46.468-37.493-61.604-37.493
			c-17.38,0-25.131,19.774-25.131,64.213c-0.001,47.947,12.247,88.512,38.544,127.46c0.466,0.688,1.234,1.086,2.032,1.086
			c0.011,0,0.022,0,0.033,0c1.348,0,2.438-1.113,2.438-2.462c0-0.167-0.017-0.251-0.049-0.409
			c-1.016-14.129-0.889-23.849-0.467-30.131c3.174,8.373,8.884,21.468,18.35,37.535c15.063,25.567,42.899,63.787,89.971,99.806
			c0.437,0.334,0.962,0.661,1.49,0.661c0.006,0,0.013,0,0.02,0c1.354,0,2.451-1.265,2.451-2.618c0-0.124-0.01-0.302-0.027-0.419
			c-0.163-10.545,5.985-17.263,9.063-19.93c7.011,7.833,37.331,37.714,101.594,50.896c0.162,0.033,0.326,0.036,0.492,0.036
			c0.104,0,0.211-0.015,0.316-0.027c44.16-5.736,73.552-22.368,90.43-35.309c13.536-10.376,21.339-19.962,24.644-24.511
			c3.531,4.435,10.62,14.723,11.599,26.916c0.073,0.921,0.659,1.715,1.515,2.063c0.854,0.35,1.834,0.175,2.534-0.43
			c43.521-37.686,69.065-80.979,82.832-110.639c9.979-21.5,15.329-38.926,17.836-48.368c1.964,5.393,4.948,13.897,8.906,26.923
			c0.312,1.023,1.252,1.414,2.321,1.414c0.009,0,0.017,0,0.023,0c1.062,0,2.003-0.359,2.331-1.371
			c1.167-3.596,2.313-6.801,3.43-10.187c9.62-29.184,17.219-52.206,17.219-87.932C758.515,608.074,750.764,588.282,733.384,588.282z
			"/>
		<g>
			<path d="M349.314,439.329c-17.606,0-31.932-14.325-31.932-31.933c0-17.607,14.324-31.931,31.932-31.931
				c17.606,0,31.932,14.324,31.932,31.931C381.246,425.004,366.922,439.329,349.314,439.329z M349.314,389.193
				c-10.037,0-18.204,8.166-18.204,18.204c0,10.039,8.167,18.206,18.204,18.206s18.204-8.167,18.204-18.206
				C367.52,397.359,359.354,389.193,349.314,389.193z"/>
		</g>
		<g>
			<path d="M622.379,439.329c-17.606,0-31.932-14.325-31.932-31.933c0-17.607,14.324-31.931,31.932-31.931
				c17.606,0,31.932,14.324,31.932,31.931C654.311,425.004,639.985,439.329,622.379,439.329z M622.379,389.193
				c-10.038,0-18.204,8.166-18.204,18.204c0,10.039,8.166,18.206,18.204,18.206c10.037,0,18.204-8.167,18.204-18.206
				C640.583,397.359,632.416,389.193,622.379,389.193z"/>
		</g>
		<g>
			<path d="M419.645,347.072c-2.979,0-5.394-2.415-5.394-5.394c0-34.725-27.228-62.975-60.696-62.975
				c-33.468,0-60.696,28.25-60.696,62.975c0,2.979-2.414,5.394-5.393,5.394s-5.393-2.415-5.393-5.394
				c0-40.672,32.065-73.761,71.48-73.761c39.416,0,71.482,33.089,71.482,73.761C425.037,344.658,422.622,347.072,419.645,347.072z"
				/>
		</g>
		<path d="M805.096,210.988c-17.637-39.509-42.881-74.988-75.033-105.454C663.964,42.903,576.092,8.411,482.631,8.411
			c-93.46,0-181.333,34.492-247.432,97.123c-32.152,30.466-57.396,65.945-75.032,105.454
			c-18.264,40.915-27.524,84.377-27.524,129.18c0,37.703,18.405,105.713,19.188,108.589c0.26,0.952,1.063,1.655,2.041,1.786
			c0.108,0.014,0.217,0.021,0.325,0.021c0.86,0,1.668-0.453,2.112-1.21c0.541-0.919,52.73-89.384,84.399-119.348
			c7.102,26.77,38.086,55.8,39.47,57.086c0.655,0.609,1.592,0.813,2.439,0.531c0.849-0.281,1.478-1.002,1.64-1.882
			c0.282-1.53,28.707-152.025,89.288-171.519c32.906,38.367,125.763,77.543,129.741,79.209c0.923,0.386,1.981,0.175,2.685-0.533
			c0.704-0.708,0.908-1.771,0.519-2.688c-0.238-0.561-22.934-54.579-3.101-68.603c44.086,73.254,94.21,108.724,128.645,125.603
			c37.824,18.542,64.776,19.312,65.906,19.336c1.054-0.009,2.014-0.639,2.364-1.639c0.352-1,0.021-2.112-0.821-2.757
			c-0.474-0.362-45.707-35.578-26.427-66.823c69.661,88.702,148.074,129.61,148.866,130.017c0.715,0.368,1.565,0.361,2.272-0.017
			c0.71-0.378,1.188-1.079,1.281-1.877c0.292-2.476,7.143-60.872,7.143-83.284C832.619,295.366,823.359,251.903,805.096,210.988z"/>
		<g>
			<path d="M229.036,594.787c-38.352,0-68.394-58.797-68.394-133.856c0-14.301,1.114-28.364,3.311-41.803
				c0.656-4.008,4.436-6.726,8.444-6.07c4.009,0.655,6.727,4.436,6.071,8.444c-2.069,12.655-3.119,25.921-3.119,39.429
				c0,32.706,6.09,63.339,17.147,86.255c10.087,20.905,23.404,32.896,36.539,32.896c2.339,0,4.701-0.369,7.02-1.098
				c3.881-1.216,8.003,0.939,9.219,4.813c1.216,3.875-0.939,8.002-4.814,9.219C236.714,594.19,232.871,594.787,229.036,594.787z"/>
		</g>
		<g>
			<path d="M755.997,594.787c-3.833,0-7.678-0.596-11.425-1.771c-3.875-1.216-6.03-5.343-4.814-9.218s5.344-6.03,9.218-4.814
				c2.321,0.728,4.684,1.098,7.021,1.098c13.134,0,26.45-11.989,36.537-32.896c11.058-22.916,17.146-53.549,17.146-86.255
				c0-13.504-1.05-26.77-3.118-39.429c-0.654-4.009,2.063-7.789,6.071-8.444c4.01-0.656,7.789,2.063,8.443,6.071
				c2.196,13.442,3.311,27.506,3.311,41.802C824.389,535.99,794.348,594.787,755.997,594.787z"/>
		</g>
		<g>
			<path d="M748.549,479.669c0,67.549-10.537,131.282-29.146,187.316c3.99,4.643,7.583,9.38,10.736,14.193
				c21.613-61.044,33.118-129.915,33.118-201.51c0-28.259-1.821-56.502-5.413-83.945c-0.525-4.027-4.217-6.866-8.246-6.337
				c-4.025,0.527-6.863,4.219-6.337,8.246C746.771,424.445,748.549,452.046,748.549,479.669z"/>
			<path d="M708.043,697.807C662.474,809.79,582.918,884.117,492.579,884.117c-87.337,0-164.596-69.476-210.81-175.282
				c-5.63-0.775-11.371-1.717-17.221-2.837c10.185,24.551,22.085,47.626,35.64,68.821c24.738,38.688,53.619,69.112,85.839,90.424
				c33.688,22.283,69.536,33.582,106.553,33.582c37.016,0,72.866-11.299,106.554-33.582c32.219-21.312,61.101-51.734,85.84-90.424
				c16.063-25.12,29.819-52.869,41.125-82.607C720.913,694.532,714.879,696.396,708.043,697.807z"/>
			<path d="M267.879,673.234c-19.929-57.525-31.268-123.492-31.268-193.565c0-24.281,1.376-48.598,4.09-72.276
				c0.463-4.035-2.434-7.681-6.469-8.143c-4.035-0.465-7.681,2.433-8.143,6.469c-2.777,24.231-4.187,49.111-4.187,73.95
				c0,75.227,12.699,147.448,36.485,210.738C261.136,684.521,264.307,678.791,267.879,673.234z"/>
		</g>
		<path d="M587.507,687.365c0.704-0.69,1.706-1.029,2.673-0.82c0.408,0.087,41.236,8.68,80.649,8.68
			c24.279,0,42.842-3.199,55.25-9.497c-30.5-48.031-106.356-88.506-184.813-101.973c-6.441,9.361-27.021,33.975-48.688,33.975
			c-22.22,0-39.912-24.824-49.313-35.836c-86.26,11.54-157.74,56.479-182.333,117.395c20.263,4.16,39.278,6.266,56.567,6.266
			c51.359,0,71.502-18.67,71.699-18.857c0.678-0.647,1.627-0.936,2.549-0.775c0.922,0.164,1.716,0.751,2.13,1.592
			c1.056,2.143,2.722,10.584-16.937,31.721c3.822,0.464,7.688,0.77,11.546,0.77c0.003,0,0.005,0,0.008,0
			c56.771,0,101.427-50.192,101.871-50.699c0.613-0.698,1.515-1.104,2.447-1.026c0.926,0.074,1.763,0.797,2.257,1.584
			c0.301,0.479,30.559,48.143,75.257,48.143c0.006,0,0.004,0,0.01,0c8.195,0,16.488-1.832,24.697-4.987
			C583.29,691.646,586.441,688.411,587.507,687.365z"/>
		<g>
			<path d="M492.579,624.729c-29.414,0-53.344-31.043-53.344-69.2c0-2.979,2.414-5.395,5.393-5.395c2.979,0,5.394,2.415,5.394,5.395
				c0,32.21,19.092,58.415,42.559,58.415c23.468,0,42.561-26.205,42.561-58.415c0-2.979,2.415-5.395,5.395-5.395
				c2.978,0,5.393,2.415,5.393,5.395C545.926,593.687,521.994,624.729,492.579,624.729z"/>
		</g>
	</g>
</g>
<g id="hands">
</g>
</svg>
