<?xml version="1.0" encoding="utf-8"?>
<!-- Generator: Adobe Illustrator 16.0.0, SVG Export Plug-In . SVG Version: 6.00 Build 0)  -->
<!DOCTYPE svg PUBLIC "-//W3C//DTD SVG 1.1//EN" "http://www.w3.org/Graphics/SVG/1.1/DTD/svg11.dtd">
<svg version="1.1" xmlns="http://www.w3.org/2000/svg" xmlns:xlink="http://www.w3.org/1999/xlink" x="0px" y="0px" width="300px"
	 height="300px" viewBox="0 0 300 300" enable-background="new 0 0 300 300" xml:space="preserve">
<g id="Layer_2" display="none">
	<rect x="-17.5" y="-7.5" display="inline" fill="#4D4D4D" stroke="#FFFFFF" stroke-miterlimit="10" width="341" height="317"/>
</g>
<g id="Layer_1">
	<path opacity="0.5" fill="#FFFFFF" d="M174.139,150.128l70.793-89.967c6.489-8.247,5.064-20.192-3.183-26.681
		c-8.246-6.489-20.191-5.065-26.681,3.182L150,119.354L84.932,36.662c-6.488-8.246-18.433-9.67-26.681-3.182
		c-8.246,6.489-9.671,18.435-3.182,26.681l70.793,89.967L55.021,240.9c-6.456,8.272-4.983,20.212,3.289,26.668
		c3.472,2.709,7.589,4.022,11.676,4.022c5.652,0,11.245-2.511,14.992-7.312L150,180.962l65.021,83.317
		c3.747,4.801,9.34,7.312,14.991,7.312c4.087,0,8.205-1.313,11.677-4.022c8.272-6.456,9.745-18.396,3.289-26.668L174.139,150.128z"
		/>
</g>
</svg>
