<?xml version="1.0" encoding="utf-8"?>
<!-- Generator: Adobe Illustrator 16.0.0, SVG Export Plug-In . SVG Version: 6.00 Build 0)  -->
<!DOCTYPE svg PUBLIC "-//W3C//DTD SVG 1.1//EN" "http://www.w3.org/Graphics/SVG/1.1/DTD/svg11.dtd">
<svg version="1.1" xmlns="http://www.w3.org/2000/svg" xmlns:xlink="http://www.w3.org/1999/xlink" x="0px" y="0px" width="100px"
	 height="300px" viewBox="0 0 100 300" enable-background="new 0 0 100 300" xml:space="preserve">
<g id="Layer_2">
	<g>
		<defs>
			<path id="SVGID_1_" d="M17.708,119.25h64.583c9.793,0,17.709,7.917,17.709,17.708v44.083c0,9.793-7.916,17.709-17.709,17.709
				H17.708C7.917,198.75,0,190.834,0,181.041v-44.083C0,127.167,7.917,119.25,17.708,119.25z"/>
		</defs>
		<clipPath id="SVGID_2_">
			<use xlink:href="#SVGID_1_"  overflow="visible"/>
		</clipPath>
		<rect x="21.931" y="119.25" clip-path="url(#SVGID_2_)" fill="#001E36" width="59.027" height="79.226"/>
		<g clip-path="url(#SVGID_2_)">
			<polygon fill="#330000" points="-33.833,198.476 22.573,198.476 42.218,118.583 -14.188,118.583 			"/>
			<polygon fill="#49021F" points="57.782,198.476 114.188,198.476 133.833,118.583 77.427,118.583 			"/>
		</g>
	</g>
	<g>
		<g>
			<path fill="#FF9A00" d="M16.11,162.228h-5.166l-1.056,3.265c-0.028,0.123-0.139,0.209-0.264,0.192H7.014
				c-0.153,0-0.194-0.082-0.153-0.249l4.474-12.875c0.04-0.139,0.083-0.292,0.138-0.458c0.057-0.292,0.084-0.598,0.084-0.903
				c-0.015-0.069,0.042-0.138,0.11-0.152h3.597c0.111,0,0.167,0.041,0.182,0.111l5.068,14.305c0.043,0.152,0,0.222-0.138,0.222
				h-2.904c-0.095,0.017-0.193-0.055-0.221-0.15L16.11,162.228z M11.75,159.408h3.527c-0.083-0.293-0.194-0.639-0.318-1
				c-0.126-0.375-0.251-0.777-0.377-1.195c-0.139-0.43-0.263-0.848-0.402-1.277c-0.139-0.432-0.264-0.834-0.374-1.236
				c-0.111-0.389-0.209-0.75-0.306-1.083h-0.028c-0.125,0.598-0.278,1.194-0.473,1.792c-0.208,0.666-0.416,1.361-0.639,2.055
				C12.166,158.172,11.958,158.824,11.75,159.408z M23.611,153.478c-0.459,0.015-0.904-0.167-1.238-0.485
				c-0.318-0.349-0.485-0.807-0.471-1.278c-0.015-0.472,0.167-0.917,0.5-1.236c0.333-0.32,0.777-0.486,1.236-0.486
				c0.54,0,0.959,0.166,1.264,0.486c0.305,0.333,0.472,0.777,0.457,1.236c0.015,0.472-0.152,0.93-0.484,1.278
				C24.557,153.324,24.083,153.506,23.611,153.478L23.611,153.478z M22.055,165.534v-10.696c0-0.139,0.057-0.194,0.182-0.194h2.749
				c0.125,0,0.18,0.069,0.18,0.194v10.696c0,0.15-0.055,0.222-0.18,0.222h-2.723C22.125,165.756,22.055,165.672,22.055,165.534z"/>
		</g>
		<g id="Layer_2_1_">
			<g id="Outlined_Mnemonics_Logos">
				<g id="Ps">
					<path fill="#31A8FF" d="M40.833,165.574v-14.291c0-0.098,0.041-0.153,0.14-0.153c0.235,0,0.457,0,0.777-0.015
						c0.332-0.013,0.681-0.013,1.054-0.027c0.377-0.014,0.779-0.014,1.21-0.026c0.429-0.015,0.846-0.015,1.263-0.015
						c1.139,0,2.083,0.139,2.861,0.43c0.694,0.237,1.334,0.626,1.861,1.141c0.444,0.443,0.792,0.986,1.015,1.583
						c0.209,0.583,0.32,1.181,0.32,1.805c0,1.194-0.279,2.181-0.835,2.958c-0.556,0.778-1.332,1.362-2.234,1.694
						c-0.946,0.348-1.987,0.471-3.126,0.471c-0.334,0-0.557,0-0.696-0.012c-0.138-0.014-0.332-0.014-0.596-0.014v4.459
						c0.012,0.096-0.055,0.18-0.153,0.194c-0.014,0-0.028,0-0.056,0H41C40.888,165.756,40.833,165.701,40.833,165.574z
						 M43.858,153.811v4.666c0.195,0.015,0.377,0.029,0.544,0.029h0.736c0.542,0,1.082-0.084,1.597-0.251
						c0.444-0.126,0.833-0.389,1.14-0.735c0.292-0.348,0.43-0.82,0.43-1.432c0.014-0.43-0.097-0.86-0.319-1.236
						c-0.236-0.36-0.569-0.638-0.972-0.791c-0.516-0.209-1.07-0.292-1.639-0.277c-0.361,0-0.681,0-0.944,0.015
						C44.152,153.783,43.957,153.798,43.858,153.811L43.858,153.811z"/>
					<path fill="#31A8FF" d="M60,157.631c-0.418-0.224-0.863-0.377-1.332-0.473c-0.516-0.111-1.027-0.181-1.557-0.181
						c-0.277-0.015-0.57,0.028-0.834,0.097c-0.182,0.041-0.332,0.139-0.432,0.277c-0.068,0.111-0.109,0.25-0.109,0.375
						c0,0.126,0.055,0.25,0.139,0.361c0.125,0.154,0.293,0.278,0.473,0.375c0.318,0.167,0.652,0.32,0.986,0.459
						c0.75,0.25,1.471,0.597,2.139,1.014c0.459,0.292,0.832,0.682,1.098,1.152c0.223,0.445,0.334,0.933,0.318,1.431
						c0.016,0.653-0.182,1.308-0.541,1.848c-0.389,0.557-0.932,0.986-1.557,1.236c-0.68,0.293-1.512,0.444-2.514,0.444
						c-0.637,0-1.264-0.056-1.889-0.181c-0.486-0.084-0.971-0.236-1.418-0.444c-0.096-0.055-0.164-0.152-0.152-0.264v-2.418
						c0-0.04,0.016-0.096,0.057-0.125c0.043-0.027,0.084-0.013,0.125,0.015c0.543,0.32,1.111,0.542,1.723,0.682
						c0.527,0.138,1.082,0.206,1.639,0.206c0.527,0,0.902-0.068,1.152-0.194c0.225-0.096,0.375-0.333,0.375-0.583
						c0-0.194-0.109-0.374-0.332-0.555c-0.223-0.182-0.682-0.389-1.361-0.652c-0.709-0.25-1.361-0.584-1.973-1.001
						c-0.432-0.305-0.793-0.708-1.057-1.18c-0.223-0.444-0.332-0.931-0.32-1.418c0-0.596,0.168-1.165,0.475-1.68
						c0.348-0.556,0.859-0.999,1.459-1.278c0.65-0.333,1.471-0.485,2.457-0.485c0.57,0,1.152,0.042,1.723,0.124
						c0.416,0.057,0.818,0.168,1.193,0.32c0.057,0.014,0.111,0.068,0.139,0.125c0.014,0.055,0.029,0.11,0.029,0.167v2.265
						c0,0.055-0.029,0.109-0.07,0.139C60.125,157.658,60.057,157.658,60,157.631z"/>
				</g>
			</g>
		</g>
		<g>
			<g id="vlpa_1_">
				<g id="vlpb_1_">
					<path fill="#FF3366" d="M78.779,151.283v14.305c0,0.153-0.07,0.224-0.195,0.224h-2.723c-0.125,0-0.18-0.07-0.18-0.224v-14.305
						c0-0.125,0.068-0.181,0.193-0.181h2.709c0.084-0.015,0.166,0.041,0.18,0.14C78.779,151.255,78.779,151.268,78.779,151.283z"/>
					<path fill="#FF3366" d="M86.805,165.977c-1.027,0.015-2.055-0.194-2.984-0.624c-0.875-0.402-1.598-1.069-2.098-1.889
						c-0.514-0.849-0.764-1.902-0.764-3.168c-0.014-1.026,0.25-2.041,0.764-2.93c0.527-0.903,1.291-1.653,2.209-2.153
						c0.971-0.541,2.139-0.805,3.514-0.805c0.068,0,0.166,0,0.291,0.014s0.264,0.014,0.43,0.027v-4.389
						c0-0.098,0.043-0.152,0.139-0.152h2.82c0.07-0.015,0.125,0.041,0.139,0.097v0.028v13.222c0,0.25,0.014,0.528,0.027,0.834
						c0.029,0.29,0.043,0.569,0.057,0.806c0,0.096-0.043,0.181-0.139,0.223c-0.723,0.305-1.486,0.527-2.264,0.665
						C88.25,165.907,87.527,165.977,86.805,165.977L86.805,165.977z M88.166,163.199v-6.111c-0.125-0.027-0.25-0.057-0.375-0.069
						c-0.152-0.015-0.305-0.027-0.457-0.027c-0.543,0-1.084,0.111-1.57,0.36c-0.471,0.236-0.875,0.584-1.18,1.028
						c-0.307,0.444-0.459,1.042-0.459,1.764c-0.014,0.486,0.07,0.973,0.236,1.431c0.139,0.375,0.348,0.709,0.625,0.986
						c0.264,0.25,0.584,0.444,0.943,0.557c0.375,0.125,0.766,0.179,1.154,0.179c0.207,0,0.402-0.012,0.584-0.026
						C87.848,163.284,88.014,163.255,88.166,163.199z"/>
				</g>
			</g>
		</g>
	</g>
</g>
<g id="Layer_1">
	<g>
		<path d="M10.46,108.013H5.506l-1.037,2.978H2.16l4.831-12.788h1.994l4.839,12.788h-2.319L10.46,108.013z M6.13,106.222h3.707
			l-1.854-5.305L6.13,106.222z"/>
		<path d="M14.667,106.169c0-1.464,0.339-2.639,1.019-3.526c0.679-0.887,1.589-1.331,2.731-1.331c1.007,0,1.821,0.351,2.441,1.054
			V97.5h2.134v13.491h-1.932l-0.105-0.983c-0.638,0.773-1.49,1.159-2.556,1.159c-1.113,0-2.013-0.448-2.701-1.344
			C15.011,108.927,14.667,107.709,14.667,106.169z M16.801,106.354c0,0.966,0.186,1.72,0.558,2.262
			c0.372,0.542,0.9,0.812,1.585,0.812c0.873,0,1.511-0.389,1.915-1.168v-4.058c-0.392-0.761-1.024-1.142-1.897-1.142
			c-0.691,0-1.224,0.274-1.599,0.821C16.989,104.428,16.801,105.252,16.801,106.354z"/>
		<path d="M24.82,106.151c0-0.931,0.185-1.77,0.553-2.517c0.369-0.746,0.887-1.32,1.555-1.721c0.667-0.401,1.435-0.602,2.301-0.602
			c1.282,0,2.323,0.413,3.122,1.238s1.231,1.92,1.296,3.285l0.009,0.501c0,0.937-0.18,1.774-0.541,2.512
			c-0.36,0.738-0.875,1.309-1.546,1.713c-0.67,0.404-1.445,0.606-2.323,0.606c-1.341,0-2.414-0.446-3.219-1.339
			s-1.208-2.083-1.208-3.57V106.151z M26.955,106.336c0,0.978,0.202,1.743,0.606,2.297c0.404,0.553,0.966,0.83,1.687,0.83
			s1.281-0.281,1.682-0.843c0.401-0.563,0.602-1.385,0.602-2.468c0-0.96-0.206-1.722-0.619-2.284
			c-0.413-0.562-0.973-0.843-1.682-0.843c-0.697,0-1.25,0.277-1.66,0.83S26.955,105.235,26.955,106.336z"/>
		<path d="M43.8,106.336c0,1.476-0.329,2.649-0.988,3.522s-1.565,1.309-2.718,1.309c-1.113,0-1.979-0.401-2.6-1.203l-0.105,1.027
			h-1.932V97.5h2.134v4.901c0.615-0.726,1.443-1.089,2.486-1.089c1.159,0,2.07,0.43,2.731,1.291s0.992,2.064,0.992,3.61V106.336z
			 M41.666,106.151c0-1.031-0.181-1.804-0.544-2.319c-0.363-0.515-0.89-0.773-1.581-0.773c-0.925,0-1.575,0.404-1.95,1.212v3.917
			c0.381,0.826,1.037,1.238,1.967,1.238c0.667,0,1.183-0.249,1.546-0.747c0.363-0.498,0.55-1.25,0.562-2.257V106.151z"/>
		<path d="M49.773,111.167c-1.353,0-2.449-0.426-3.289-1.278s-1.261-1.986-1.261-3.403v-0.264c0-0.949,0.183-1.796,0.549-2.543
			c0.366-0.746,0.879-1.328,1.542-1.743c0.662-0.416,1.399-0.624,2.213-0.624c1.294,0,2.294,0.413,3,1.238
			c0.706,0.826,1.059,1.994,1.059,3.504v0.861h-6.21c0.064,0.785,0.327,1.405,0.786,1.862c0.46,0.457,1.038,0.685,1.735,0.685
			c0.978,0,1.774-0.395,2.389-1.186l1.15,1.098c-0.381,0.568-0.889,1.008-1.523,1.322C51.276,111.01,50.563,111.167,49.773,111.167z
			 M49.518,103.024c-0.585,0-1.058,0.205-1.418,0.615c-0.36,0.41-0.59,0.98-0.689,1.712h4.066v-0.158
			c-0.047-0.714-0.236-1.254-0.57-1.62C50.572,103.208,50.11,103.024,49.518,103.024z"/>
		<path d="M65.047,108.409c0-0.381-0.156-0.67-0.47-0.87s-0.833-0.375-1.56-0.527c-0.726-0.152-1.332-0.346-1.817-0.58
			c-1.066-0.516-1.599-1.262-1.599-2.24c0-0.82,0.345-1.505,1.036-2.055c0.691-0.551,1.569-0.826,2.635-0.826
			c1.136,0,2.054,0.281,2.754,0.843c0.699,0.562,1.05,1.291,1.05,2.187h-2.135c0-0.41-0.152-0.75-0.457-1.023
			c-0.304-0.272-0.708-0.409-1.212-0.409c-0.468,0-0.851,0.108-1.146,0.325c-0.295,0.217-0.443,0.506-0.443,0.87
			c0,0.328,0.138,0.583,0.413,0.764s0.831,0.364,1.669,0.549c0.837,0.185,1.494,0.404,1.972,0.659s0.831,0.561,1.063,0.918
			c0.231,0.357,0.347,0.791,0.347,1.3c0,0.855-0.354,1.547-1.063,2.077c-0.708,0.53-1.637,0.795-2.784,0.795
			c-0.778,0-1.473-0.141-2.081-0.421c-0.609-0.281-1.084-0.667-1.423-1.16c-0.34-0.492-0.51-1.021-0.51-1.59h2.073
			c0.028,0.504,0.219,0.892,0.57,1.164c0.352,0.272,0.817,0.408,1.396,0.408c0.563,0,0.989-0.107,1.282-0.32
			C64.9,109.034,65.047,108.754,65.047,108.409z"/>
		<path d="M74.761,110.06c-0.626,0.738-1.517,1.106-2.67,1.106c-1.03,0-1.811-0.302-2.341-0.905
			c-0.529-0.603-0.795-1.476-0.795-2.617v-6.157h2.135v6.131c0,1.206,0.5,1.809,1.502,1.809c1.036,0,1.735-0.372,2.099-1.115v-6.825
			h2.135v9.503h-2.012L74.761,110.06z"/>
		<path d="M79.003,99.02c0-0.328,0.104-0.6,0.313-0.817c0.207-0.217,0.505-0.325,0.891-0.325c0.387,0,0.686,0.108,0.896,0.325
			s0.316,0.489,0.316,0.817c0,0.322-0.105,0.59-0.316,0.804s-0.51,0.32-0.896,0.32c-0.386,0-0.684-0.106-0.891-0.32
			C79.107,99.609,79.003,99.341,79.003,99.02z M81.27,110.991h-2.135v-9.503h2.135V110.991z"/>
		<path d="M86.267,99.178v2.31h1.678v1.581h-1.678v5.305c0,0.363,0.072,0.625,0.216,0.786c0.143,0.161,0.399,0.242,0.769,0.242
			c0.245,0,0.494-0.029,0.746-0.088v1.651c-0.486,0.135-0.954,0.202-1.405,0.202c-1.64,0-2.459-0.905-2.459-2.714v-5.384h-1.563
			v-1.581h1.563v-2.31H86.267z"/>
		<path d="M93.759,111.167c-1.353,0-2.449-0.426-3.289-1.278c-0.841-0.852-1.261-1.986-1.261-3.403v-0.264
			c0-0.949,0.184-1.796,0.549-2.543c0.366-0.746,0.88-1.328,1.542-1.743c0.661-0.416,1.399-0.624,2.213-0.624
			c1.294,0,2.294,0.413,3,1.238c0.705,0.826,1.058,1.994,1.058,3.504v0.861h-6.209c0.064,0.785,0.326,1.405,0.786,1.862
			c0.459,0.457,1.037,0.685,1.734,0.685c0.978,0,1.774-0.395,2.389-1.186l1.15,1.098c-0.38,0.568-0.888,1.008-1.523,1.322
			C95.262,111.01,94.549,111.167,93.759,111.167z M93.504,103.024c-0.585,0-1.059,0.205-1.418,0.615
			c-0.36,0.41-0.59,0.98-0.689,1.712h4.066v-0.158c-0.047-0.714-0.237-1.254-0.571-1.62
			C94.558,103.208,94.096,103.024,93.504,103.024z"/>
	</g>
</g>
</svg>
