<?xml version="1.0" encoding="utf-8"?>
<!-- Generator: Adobe Illustrator 16.0.0, SVG Export Plug-In . SVG Version: 6.00 Build 0)  -->
<!DOCTYPE svg PUBLIC "-//W3C//DTD SVG 1.1//EN" "http://www.w3.org/Graphics/SVG/1.1/DTD/svg11.dtd">
<svg version="1.1" id="Layer_1" xmlns="http://www.w3.org/2000/svg" xmlns:xlink="http://www.w3.org/1999/xlink" x="0px" y="0px"
	 width="27.187px" height="32px" viewBox="4.372 0 27.187 32" enable-background="new 4.372 0 27.187 32" xml:space="preserve">
<path fill="#00D8FF" d="M26.091,15.051c-0.269-0.091-0.539-0.177-0.812-0.255c0.045-0.187,0.086-0.373,0.125-0.554
	c0.614-2.983,0.212-5.387-1.159-6.178c-1.315-0.758-3.467,0.033-5.642,1.924c-0.213,0.187-0.422,0.378-0.627,0.576
	c-0.137-0.131-0.276-0.261-0.418-0.387c-2.277-2.021-4.559-2.874-5.931-2.08c-1.314,0.761-1.704,3.02-1.15,5.847
	c0.055,0.28,0.118,0.559,0.186,0.835c-0.323,0.092-0.634,0.19-0.933,0.293c-2.67,0.931-4.375,2.39-4.375,3.904
	c0,1.562,1.83,3.131,4.612,4.081c0.225,0.076,0.452,0.147,0.681,0.213c-0.074,0.297-0.14,0.598-0.198,0.898
	c-0.527,2.779-0.115,4.985,1.196,5.741c1.354,0.781,3.626-0.021,5.839-1.956c0.18-0.155,0.355-0.318,0.526-0.483
	c0.222,0.212,0.448,0.421,0.682,0.621c2.143,1.844,4.261,2.588,5.569,1.831c1.353-0.783,1.793-3.152,1.223-6.036
	c-0.045-0.226-0.096-0.449-0.151-0.673c0.158-0.048,0.315-0.098,0.469-0.147c2.892-0.958,4.771-2.506,4.771-4.09
	C30.574,17.458,28.815,15.989,26.091,15.051z M25.465,22.044c-0.14,0.047-0.28,0.091-0.426,0.133
	c-0.318-1.011-0.75-2.085-1.276-3.194c0.502-1.084,0.918-2.146,1.227-3.148c0.259,0.075,0.509,0.153,0.751,0.236
	c2.333,0.804,3.757,1.99,3.757,2.907C29.497,19.951,27.96,21.217,25.465,22.044z M24.428,24.097
	c0.253,1.274,0.287,2.427,0.121,3.328c-0.15,0.811-0.452,1.351-0.825,1.566c-0.795,0.461-2.494-0.139-4.328-1.716
	c-0.216-0.187-0.428-0.378-0.635-0.577c0.712-0.777,1.421-1.681,2.115-2.685c1.219-0.108,2.37-0.285,3.414-0.526
	C24.341,23.689,24.388,23.894,24.428,24.097z M13.953,28.911c-0.777,0.274-1.395,0.283-1.768,0.066
	c-0.796-0.457-1.126-2.229-0.675-4.605c0.053-0.279,0.114-0.559,0.183-0.837c1.033,0.229,2.177,0.393,3.398,0.491
	c0.698,0.982,1.428,1.886,2.166,2.675C17.1,26.853,16.941,27,16.777,27.146C15.798,28.001,14.817,28.605,13.953,28.911z
	 M10.315,22.039c-1.23-0.421-2.246-0.968-2.941-1.563c-0.626-0.536-0.941-1.066-0.941-1.498c0-0.919,1.369-2.091,3.652-2.887
	c0.278-0.097,0.568-0.188,0.869-0.273c0.315,1.027,0.729,2.099,1.229,3.186c-0.506,1.102-0.926,2.19-1.246,3.23
	C10.729,22.173,10.521,22.109,10.315,22.039z M11.535,13.737c-0.475-2.421-0.16-4.249,0.632-4.708
	c0.844-0.488,2.71,0.208,4.677,1.954c0.127,0.114,0.254,0.231,0.378,0.349c-0.732,0.787-1.456,1.683-2.148,2.659
	c-1.187,0.109-2.322,0.286-3.366,0.522C11.644,14.258,11.586,13.998,11.535,13.737L11.535,13.737z M22.413,16.425
	c-0.247-0.426-0.503-0.847-0.767-1.262c0.805,0.102,1.575,0.236,2.3,0.402c-0.217,0.697-0.488,1.425-0.809,2.171
	C22.906,17.294,22.663,16.857,22.413,16.425z M17.977,12.104c0.498,0.539,0.996,1.139,1.484,1.792
	c-0.993-0.048-1.988-0.048-2.98-0.001C16.97,13.248,17.472,12.647,17.977,12.104z M13.512,16.431
	c-0.248,0.429-0.485,0.864-0.712,1.303c-0.313-0.743-0.582-1.475-0.801-2.181c0.72-0.161,1.488-0.292,2.287-0.393
	C14.018,15.578,13.76,16.001,13.512,16.431L13.512,16.431z M14.308,22.868c-0.826-0.092-1.604-0.216-2.323-0.373
	c0.223-0.719,0.497-1.465,0.816-2.227c0.229,0.441,0.467,0.876,0.715,1.306C13.772,22.016,14.037,22.447,14.308,22.868z
	 M18.007,25.926c-0.511-0.551-1.021-1.159-1.518-1.814c0.483,0.018,0.975,0.029,1.476,0.029c0.514,0,1.021-0.014,1.522-0.035
	C18.996,24.772,18.501,25.383,18.007,25.926z M23.15,20.231c0.337,0.768,0.62,1.511,0.846,2.218c-0.73,0.168-1.52,0.302-2.353,0.4
	c0.267-0.423,0.525-0.851,0.774-1.283C22.671,21.127,22.915,20.682,23.15,20.231z M21.484,21.029
	c-0.381,0.662-0.784,1.313-1.209,1.952c-0.77,0.055-1.54,0.081-2.31,0.081c-0.785,0-1.548-0.024-2.284-0.072
	c-0.435-0.637-0.846-1.288-1.232-1.955h0c-0.385-0.665-0.744-1.342-1.076-2.032c0.332-0.692,0.69-1.37,1.073-2.033l0,0
	c0.382-0.664,0.79-1.313,1.222-1.947c0.75-0.057,1.52-0.086,2.297-0.086l0,0c0.781,0,1.551,0.03,2.3,0.087
	c0.429,0.633,0.834,1.28,1.217,1.94c0.383,0.664,0.747,1.339,1.086,2.023C22.232,19.681,21.869,20.362,21.484,21.029z M23.708,8.998
	c0.844,0.487,1.172,2.451,0.642,5.026c-0.035,0.164-0.072,0.332-0.113,0.501c-1.048-0.242-2.183-0.421-3.373-0.532
	c-0.692-0.987-1.41-1.884-2.132-2.662c0.189-0.182,0.383-0.359,0.58-0.531C21.174,9.18,22.913,8.54,23.708,8.998z M17.965,16.726
	c1.243,0,2.252,1.008,2.252,2.252c0,1.243-1.009,2.252-2.252,2.252c-1.245,0-2.252-1.009-2.252-2.252
	C15.713,17.733,16.72,16.726,17.965,16.726z"/>
<g>
	<path d="M12.239,4.418h-0.815v1.618h-0.73V1.83h1.479c0.485,0,0.86,0.109,1.124,0.327c0.264,0.218,0.396,0.533,0.396,0.946
		c0,0.281-0.068,0.517-0.204,0.707c-0.136,0.19-0.325,0.336-0.568,0.438l0.945,1.752v0.037h-0.784L12.239,4.418z M11.424,3.829
		h0.751c0.247,0,0.439-0.063,0.579-0.187c0.138-0.124,0.208-0.294,0.208-0.51c0-0.226-0.064-0.4-0.192-0.523
		c-0.128-0.123-0.319-0.187-0.573-0.19h-0.771V3.829z"/>
	<path d="M15.694,6.094c-0.445,0-0.805-0.14-1.082-0.42c-0.276-0.281-0.415-0.654-0.415-1.12V4.467c0-0.312,0.061-0.591,0.181-0.836
		c0.12-0.246,0.289-0.437,0.506-0.574c0.218-0.136,0.461-0.205,0.729-0.205c0.426,0,0.754,0.136,0.987,0.408
		c0.232,0.271,0.347,0.655,0.347,1.152v0.283h-2.042c0.021,0.258,0.107,0.462,0.258,0.612c0.151,0.151,0.342,0.226,0.571,0.226
		c0.322,0,0.584-0.13,0.786-0.39l0.378,0.361c-0.125,0.187-0.292,0.332-0.501,0.435C16.188,6.042,15.953,6.094,15.694,6.094z
		 M15.61,3.416c-0.193,0-0.348,0.067-0.467,0.203c-0.118,0.134-0.193,0.322-0.227,0.563h1.337V4.129
		c-0.015-0.235-0.078-0.413-0.188-0.533C15.956,3.476,15.804,3.416,15.61,3.416z"/>
	<path d="M19.359,6.036c-0.029-0.06-0.059-0.157-0.081-0.292c-0.224,0.232-0.497,0.35-0.819,0.35c-0.314,0-0.57-0.09-0.769-0.269
		c-0.198-0.179-0.297-0.4-0.297-0.665c0-0.333,0.123-0.588,0.372-0.767c0.248-0.178,0.601-0.267,1.062-0.267h0.429V3.921
		c0-0.161-0.043-0.291-0.134-0.388c-0.092-0.098-0.229-0.146-0.414-0.146c-0.16,0-0.291,0.04-0.393,0.12
		c-0.103,0.08-0.153,0.182-0.153,0.305h-0.702c0-0.171,0.056-0.332,0.17-0.481c0.113-0.149,0.269-0.266,0.463-0.351
		c0.196-0.084,0.414-0.127,0.655-0.127c0.366,0,0.657,0.092,0.875,0.276c0.218,0.184,0.328,0.442,0.335,0.775v1.41
		c0,0.281,0.039,0.505,0.118,0.673v0.049H19.359z M18.588,5.53c0.138,0,0.268-0.033,0.39-0.101c0.122-0.068,0.215-0.158,0.276-0.272
		V4.568h-0.377c-0.26,0-0.456,0.046-0.586,0.136c-0.132,0.091-0.197,0.218-0.197,0.384c0,0.135,0.045,0.243,0.134,0.323
		C18.317,5.49,18.438,5.53,18.588,5.53z"/>
	<path d="M21.976,5.533c0.176,0,0.321-0.051,0.437-0.153s0.178-0.228,0.185-0.378h0.661c-0.007,0.194-0.068,0.376-0.181,0.544
		c-0.114,0.169-0.269,0.302-0.462,0.4c-0.195,0.098-0.404,0.147-0.63,0.147c-0.438,0-0.784-0.142-1.04-0.425
		c-0.257-0.283-0.385-0.674-0.385-1.173V4.424c0-0.476,0.127-0.856,0.382-1.143c0.254-0.287,0.601-0.429,1.039-0.429
		c0.372,0,0.675,0.109,0.908,0.326c0.234,0.216,0.358,0.5,0.368,0.853h-0.661c-0.007-0.179-0.068-0.326-0.183-0.442
		c-0.115-0.115-0.262-0.173-0.438-0.173c-0.227,0-0.401,0.082-0.525,0.247c-0.123,0.165-0.186,0.415-0.188,0.75v0.113
		c0,0.339,0.062,0.592,0.184,0.758C21.569,5.45,21.744,5.533,21.976,5.533z"/>
	<path d="M24.668,2.151V2.91h0.552V3.43h-0.552v1.745c0,0.119,0.023,0.206,0.07,0.259c0.048,0.053,0.133,0.08,0.254,0.08
		c0.08,0,0.162-0.01,0.244-0.029v0.543c-0.159,0.044-0.313,0.067-0.462,0.067c-0.539,0-0.808-0.298-0.808-0.893V3.43h-0.516V2.91
		h0.516V2.151H24.668z"/>
</g>
</svg>
